<?xml version="1.0" standalone="no"?>
<!DOCTYPE svg PUBLIC "-//W3C//DTD SVG 20010904//EN"
 "http://www.w3.org/TR/2001/REC-SVG-20010904/DTD/svg10.dtd">
<svg version="1.0" xmlns="http://www.w3.org/2000/svg"
 width="609.000000pt" height="396.000000pt" viewBox="0 0 609.000000 396.000000"
 preserveAspectRatio="xMidYMid meet">
<metadata>
Created by potrace 1.10, written by Peter Selinger 2001-2011
</metadata>
<g transform="translate(0.000000,396.000000) scale(0.100000,-0.100000)"
fill="#000000" stroke="none">
<path d="M3738 3551 c-21 -12 -43 -21 -50 -21 -16 0 -158 -141 -158 -157 0 -7
-13 -27 -28 -45 -32 -39 -137 -248 -147 -295 -3 -18 -11 -35 -16 -38 -5 -4 -9
-15 -9 -27 0 -11 -6 -34 -13 -51 -20 -46 -46 -129 -57 -179 -5 -24 -17 -72
-26 -108 -23 -94 -43 -186 -54 -255 -6 -33 -17 -85 -25 -115 -8 -30 -22 -92
-31 -137 -11 -53 -23 -83 -31 -83 -10 0 -13 82 -15 410 l-3 411 -1028 -1
c-799 0 -1034 -3 -1057 -12 l-31 -13 1 -929 c0 -664 4 -933 11 -943 10 -11
196 -13 1058 -11 l1046 3 3 473 c2 408 4 473 17 478 8 4 15 12 15 19 0 7 7 18
15 25 8 7 15 20 15 30 0 10 7 23 15 30 8 7 15 27 15 46 0 18 4 35 9 39 6 3 13
27 16 53 4 26 10 56 15 67 5 11 14 45 20 75 6 30 16 87 24 125 7 39 18 86 24
105 6 19 16 60 22 90 22 106 88 328 101 335 5 4 9 17 9 30 0 21 20 69 71 167
5 10 9 24 9 32 0 7 7 19 15 26 8 7 28 40 44 74 31 65 117 161 183 202 28 18
52 24 92 24 87 0 150 -30 234 -113 39 -39 72 -76 72 -82 0 -6 13 -26 30 -45
16 -19 29 -38 30 -43 0 -4 12 -26 27 -49 14 -24 30 -56 34 -73 4 -16 11 -40
14 -52 7 -23 6 -23 -76 -23 -46 0 -89 -4 -96 -8 -8 -5 5 -30 43 -79 30 -40 54
-75 54 -77 0 -3 20 -35 45 -72 25 -36 45 -67 45 -70 0 -2 12 -23 27 -47 63
-97 105 -176 99 -186 -3 -5 -49 -11 -103 -15 -188 -13 -258 -21 -280 -34 -12
-6 -30 -12 -41 -12 -25 0 -173 -60 -190 -77 -7 -7 -19 -13 -26 -13 -24 0 -115
-101 -121 -134 -3 -17 -5 -330 -3 -695 l3 -663 69 -64 c37 -35 76 -64 86 -64
10 0 23 -7 30 -15 7 -8 25 -15 40 -15 15 0 33 -6 39 -14 6 -7 31 -16 56 -19
24 -4 53 -11 62 -16 41 -22 233 -41 405 -41 180 0 335 17 411 46 20 8 49 14
63 14 14 0 32 7 40 15 9 8 28 15 44 15 16 0 31 4 34 9 3 5 25 19 48 31 24 12
66 45 93 73 l50 52 1 670 c0 368 -2 679 -6 690 -13 34 -101 125 -121 125 -11
0 -22 7 -25 15 -4 8 -14 15 -23 15 -9 0 -25 6 -36 13 -11 8 -45 22 -75 31 -30
10 -68 22 -85 28 -16 6 -66 14 -110 18 -292 30 -316 33 -309 49 13 31 33 147
34 196 0 28 7 77 15 110 8 33 14 81 15 106 0 26 7 66 15 89 20 55 19 90 0 90
-9 0 -43 -9 -77 -21 -33 -11 -69 -19 -80 -17 -18 3 -38 43 -65 133 -3 11 -22
44 -42 74 -20 30 -41 63 -47 73 -23 39 -146 168 -160 168 -8 0 -27 12 -42 27
-29 30 -30 30 -142 39 -64 4 -81 2 -112 -15z m-723 -773 c3 -13 4 -414 3 -891
l-3 -868 -983 1 c-541 0 -988 2 -992 5 -4 3 -7 98 -7 212 l2 208 30 2 c31 2
459 1 529 -1 27 -1 42 4 50 17 8 13 8 19 -1 25 -7 4 -128 6 -269 4 -141 -2
-264 0 -273 4 -9 4 -27 7 -41 8 l-25 1 0 110 0 110 90 -5 c177 -10 237 -7 249
13 16 25 -9 39 -59 33 -22 -3 -94 -6 -160 -8 l-120 -3 -3 62 c-2 35 2 72 8 83
8 16 8 25 0 35 -7 8 -10 54 -8 126 l3 114 39 3 c28 2 42 -1 48 -12 9 -17 78
-23 92 -8 4 4 67 7 139 7 129 0 132 0 135 23 4 26 8 25 -134 22 -81 -1 -123 2
-159 14 -43 15 -49 15 -65 1 -9 -8 -34 -16 -56 -18 l-39 -2 -3 62 c-2 35 2 72
8 84 9 15 9 24 1 32 -13 13 -15 196 -1 217 5 9 5 19 -1 26 -5 7 -9 45 -7 86
l3 73 445 3 c245 1 452 -1 460 -4 17 -7 941 -6 962 1 7 2 31 6 53 8 22 2 43 4
47 5 4 1 10 -8 13 -20z m1719 -404 c21 -8 55 -14 75 -14 21 0 46 -7 57 -15 10
-8 33 -15 50 -15 17 0 37 -7 44 -15 7 -8 21 -15 31 -15 9 0 24 -7 33 -15 8 -8
18 -15 23 -15 4 0 29 -18 56 -41 42 -36 47 -45 47 -83 0 -36 -6 -47 -39 -79
-22 -20 -44 -37 -49 -37 -5 0 -15 -7 -22 -15 -7 -8 -23 -15 -35 -15 -12 0 -28
-6 -34 -14 -6 -8 -24 -16 -39 -19 -15 -2 -40 -9 -57 -15 -125 -43 -227 -55
-445 -55 -170 1 -311 12 -371 31 -19 6 -64 20 -102 31 -37 12 -75 25 -85 30
-71 35 -91 48 -124 79 -33 31 -38 42 -38 81 0 39 5 50 35 77 19 17 60 43 90
59 31 15 58 32 61 36 3 5 22 9 43 9 22 0 44 6 51 15 8 9 29 15 56 15 23 0 55
5 71 12 69 28 536 30 617 2z m-972 -404 c18 -16 38 -30 44 -30 6 0 17 -7 24
-15 7 -8 22 -15 34 -15 12 0 31 -7 42 -15 10 -8 34 -15 53 -15 19 0 42 -6 50
-14 59 -52 761 -52 836 0 11 8 36 14 56 14 20 0 42 7 49 15 7 8 23 15 36 15
12 0 25 4 29 9 3 6 26 20 51 33 26 12 49 28 51 35 3 7 11 13 19 13 11 0 14
-28 14 -150 l0 -149 -32 -37 c-18 -20 -47 -43 -65 -51 -18 -7 -33 -18 -33 -23
0 -6 -10 -10 -22 -10 -13 0 -32 -7 -42 -15 -11 -8 -36 -15 -56 -15 -20 0 -42
-6 -48 -12 -34 -35 -358 -62 -554 -48 -162 12 -283 31 -300 48 -6 6 -29 12
-49 12 -20 0 -42 7 -49 15 -7 8 -23 15 -37 15 -13 0 -26 7 -29 15 -4 8 -14 15
-23 15 -9 0 -36 18 -58 41 l-41 40 -4 147 c-2 81 -2 150 0 155 6 13 20 7 54
-23z m1388 -536 l0 -146 -45 -43 c-41 -40 -120 -85 -150 -85 -7 0 -18 -7 -25
-15 -7 -9 -29 -15 -55 -15 -26 0 -48 -6 -55 -15 -9 -11 -32 -15 -80 -15 -37 0
-84 -7 -103 -15 -28 -11 -78 -15 -210 -15 -133 0 -183 4 -210 15 -21 8 -67 15
-105 15 -50 0 -73 4 -82 15 -8 9 -30 15 -57 15 -30 0 -45 5 -49 15 -4 8 -13
15 -21 15 -29 0 -102 41 -146 82 l-46 43 -3 148 c-3 138 -2 147 15 147 11 0
36 -13 56 -28 20 -16 61 -39 91 -51 30 -13 59 -27 65 -32 5 -5 30 -9 56 -9 29
0 51 -6 59 -15 9 -11 35 -15 105 -15 53 0 113 -6 141 -15 63 -19 193 -19 264
0 30 8 93 15 140 15 59 1 91 5 104 15 11 8 37 15 59 15 21 0 51 6 65 14 36 19
98 46 107 46 3 0 27 16 52 35 25 19 49 32 54 29 5 -3 9 -71 9 -150z m-1397
-276 c84 -61 142 -85 307 -128 120 -32 650 -34 709 -4 14 8 38 14 52 14 37 0
167 44 209 70 8 6 24 14 35 19 11 5 29 18 39 30 41 45 46 31 46 -130 l0 -152
-37 -36 c-36 -35 -62 -54 -93 -66 -8 -4 -26 -12 -40 -19 -14 -7 -52 -20 -85
-30 -33 -10 -73 -23 -90 -28 -16 -6 -70 -14 -120 -18 -49 -4 -129 -13 -176
-20 -71 -11 -101 -11 -165 -1 -44 7 -122 16 -175 20 -53 3 -103 11 -110 17 -8
6 -33 14 -57 18 -24 3 -51 10 -60 15 -9 5 -37 17 -62 27 -25 10 -52 24 -61 31
-8 7 -20 13 -25 13 -6 0 -26 17 -46 38 l-36 37 -2 145 c-2 80 -2 148 -1 153 2
12 11 8 44 -15z"/>
<path d="M1396 2643 c-4 -4 -78 -10 -164 -13 -103 -3 -157 -9 -159 -16 -6 -18
44 -27 157 -28 58 -1 110 -4 115 -7 25 -16 76 -20 92 -7 13 10 60 12 217 10
178 -4 204 -2 216 12 26 32 -2 37 -221 39 -118 1 -221 6 -230 10 -8 4 -19 4
-23 0z"/>
<path d="M2156 2621 c-8 -12 3 -39 17 -43 7 -2 186 -1 399 2 287 4 390 8 399
17 7 7 9 16 5 20 -11 12 -813 16 -820 4z"/>
<path d="M1733 2432 c-7 -7 -13 -20 -13 -28 0 -12 81 -14 555 -14 551 0 555 0
555 20 0 11 -6 23 -12 25 -7 3 -251 6 -542 7 -428 2 -532 0 -543 -10z"/>
<path d="M1078 2383 c-10 -2 -18 -8 -18 -13 0 -20 81 -29 322 -34 251 -6 258
-5 268 14 6 11 8 25 5 30 -6 10 -541 13 -577 3z"/>
<path d="M2264 2319 c-5 -8 -48 -10 -146 -7 -121 5 -140 3 -147 -11 -19 -37
-5 -40 143 -34 102 4 145 3 150 -6 9 -14 83 -15 92 0 5 8 83 11 263 9 141 -2
262 -2 269 -1 16 1 16 28 0 37 -7 5 -126 7 -264 5 -173 -2 -254 1 -258 8 -9
15 -93 14 -102 0z"/>
<path d="M2034 2181 c-2 -2 -4 -12 -4 -22 0 -17 22 -18 388 -21 213 -2 393 -1
400 1 19 5 15 41 -5 41 -194 3 -776 4 -779 1z"/>
<path d="M1430 2051 c0 -19 11 -20 393 -23 215 -2 398 -1 405 1 7 2 12 11 10
20 -3 14 -44 16 -406 19 -393 2 -402 2 -402 -17z"/>
<path d="M1295 1939 c-126 -3 -231 -6 -232 -7 -10 -7 1 -21 25 -32 19 -10 84
-15 222 -17 107 -1 207 -5 222 -9 15 -3 36 -3 45 1 10 5 110 8 223 9 205 1
205 1 208 24 2 12 -3 24 -10 27 -23 7 -464 10 -703 4z"/>
<path d="M2542 1918 c-16 -16 -15 -35 1 -40 20 -8 425 6 433 15 15 15 -10 20
-138 28 -196 12 -282 11 -296 -3z"/>
<path d="M2527 1762 c-19 -4 -23 -27 -6 -37 6 -4 103 -6 215 -6 195 2 269 11
248 31 -8 8 -421 19 -457 12z"/>
<path d="M1848 1659 c-3 -8 -58 -12 -183 -13 -173 -1 -180 -2 -180 -21 0 -19
7 -20 177 -21 107 -1 183 -5 190 -12 15 -11 66 -11 86 2 21 13 385 11 390 -3
5 -15 47 -14 61 2 8 10 33 12 93 9 65 -3 87 0 103 12 34 26 1 37 -97 33 -65
-2 -89 0 -92 10 -6 16 -58 17 -73 2 -7 -7 -74 -11 -193 -11 -119 0 -186 4
-193 11 -15 15 -84 14 -89 0z"/>
<path d="M2563 1544 c-10 -28 18 -34 158 -34 169 0 259 9 259 25 0 19 -59 25
-243 25 -145 0 -168 -2 -174 -16z"/>
<path d="M1813 1434 c-18 -8 -16 -41 3 -48 9 -3 213 -6 454 -6 377 0 439 2
450 15 33 39 11 41 -452 43 -244 0 -449 -1 -455 -4z"/>
<path d="M1213 1290 c-128 -5 -156 -11 -137 -29 7 -7 513 -17 607 -12 20 1 23
26 5 37 -15 9 -284 11 -475 4z"/>
<path d="M2303 1251 c-10 -9 -11 -17 -4 -24 12 -12 672 -10 685 3 22 22 -48
28 -348 32 -262 2 -322 1 -333 -11z"/>
<path d="M1123 1123 c-34 -4 -43 -17 -19 -26 8 -3 215 -7 461 -8 370 -2 448 0
455 11 5 8 6 18 4 22 -5 8 -839 9 -901 1z"/>
<path d="M2430 1112 c0 -11 6 -22 13 -24 22 -6 505 7 513 15 18 18 -24 22
-267 25 -253 4 -259 3 -259 -16z"/>
</g>
</svg>
